<?xml version="1.0" encoding="UTF-8"?>
<svg id="Layer_2" data-name="Layer 2" xmlns="http://www.w3.org/2000/svg" viewBox="0 -48 776.63 854.53">
  <defs>
    <style>
      .cls-1 {
        fill: #ffffff;
      }
    </style>
  </defs>
  <g id="Layer_1-2" data-name="Layer 1">
    <g>
      <g>
        <polygon class="cls-1" points="571.36 46 355.36 478 337.36 442 535.36 46 571.36 46"/>
        <polygon class="cls-1" points="373.36 154 355.36 190 292.36 64 319.36 46 373.36 154"/>
        <polygon class="cls-1" points="337.36 226 319.36 262 265.36 154 292.36 136 337.36 226"/>
        <polygon class="cls-1" points="301.36 298 283.36 334 175.36 118 202.36 100 301.36 298"/>
        <polygon class="cls-1" points="499.36 46 319.36 406 301.36 370 463.36 46 499.36 46"/>
        <polygon class="cls-1" points="643.36 46 391.36 550 373.36 514 607.36 46 643.36 46"/>
        <path class="cls-1" d="M179.86,128c-20.4,0-37-16.6-37-37s16.6-37,37-37,37,16.6,37,37-16.6,37-37,37ZM179.86,74c-9.37,0-17,7.63-17,17s7.63,17,17,17,17-7.63,17-17-7.63-17-17-17Z"/>
        <path class="cls-1" d="M269.86,164c-20.4,0-37-16.6-37-37s16.6-37,37-37,37,16.6,37,37-16.6,37-37,37ZM269.86,110c-9.37,0-17,7.63-17,17s7.63,17,17,17,17-7.63,17-17-7.63-17-17-17Z"/>
        <path class="cls-1" d="M296.86,74c-20.4,0-37-16.6-37-37S276.45,0,296.86,0s37,16.6,37,37-16.6,37-37,37ZM296.86,20c-9.37,0-17,7.63-17,17s7.63,17,17,17,17-7.63,17-17-7.63-17-17-17Z"/>
      </g>
      <g>
        <path class="cls-1" d="M154.08,597.24l-49.2,160.08h-56.64L0,597.24h37.68l23.52,75.84c5.04,16.32,6.72,22.32,14.88,52.8h.96c8.4-31.2,9.12-33.84,14.88-52.8l23.76-75.84h38.4Z"/>
        <path class="cls-1" d="M205.2,662.77h71.28v26.16h-71.28v37.92h76.8v30.48h-113.76v-160.08h112.8v30.48h-75.84v35.04Z"/>
        <path class="cls-1" d="M434.4,698.53v5.04c0,25.68-2.64,34.56-12.48,43.2-5.52,4.8-14.16,8.88-22.32,10.32-5.28.96-18.48,1.44-34.8,1.44-30.48,0-39.12-1.92-50.88-11.28-7.92-6.24-13.92-17.52-15.36-29.28-1.2-10.32-2.16-31.44-2.16-53.76,0-29.76,3.6-42.96,14.4-53.28,12.48-12,24.72-14.88,62.88-14.88,22.32,0,29.76.96,38.64,5.04,11.04,5.04,17.04,13.44,19.44,27.36.96,5.28,1.2,9.36,1.68,24.24h-36.72c-.24-11.52-.72-13.92-2.64-17.52-3.12-5.52-9.36-7.2-26.16-7.2-15.84,0-23.28,1.68-27.6,6-5.04,5.28-5.76,10.56-5.76,44.64,0,27.6.72,33.36,4.32,39.6,3.6,6.48,10.8,8.64,27.84,8.64,18,0,25.92-2.4,29.04-8.88,1.92-3.84,2.16-6.24,2.16-16.32v-3.12h36.48Z"/>
        <path class="cls-1" d="M524.4,757.33h-36.96v-128.16h-43.2v-31.92h125.52v31.92h-45.36v128.16Z"/>
        <path class="cls-1" d="M622.07,757.33h-36.96v-160.08h36.96v160.08Z"/>
        <path class="cls-1" d="M737.03,645.73c0-18.24-3.6-21.12-26.16-21.12-24.96,0-30.24,3.36-30.24,18.72,0,9.84,2.88,14.4,10.08,16.32q3.36.72,29.28,2.4c25.68,1.44,34.56,3.36,42.72,8.64,10.32,6.72,13.92,16.08,13.92,37.2s-2.88,31.44-10.56,38.64c-10.08,9.36-22.8,12-54.96,12-39.12,0-53.04-3.84-60.96-16.56-5.04-7.68-6.72-16.08-6.72-36h35.28v2.88c0,8.64,1.44,13.44,5.04,16.8,3.84,3.12,7.2,3.6,29.04,3.6,14.64,0,18.24-.72,22.32-3.84,3.36-2.64,5.04-7.68,5.04-16.08,0-6.96-1.2-11.28-4.32-13.44q-3.84-3.12-32.88-5.04c-26.16-1.68-33.6-2.88-41.76-6.96-12.48-6.24-17.52-18-17.52-40.8,0-19.2,4.08-30.96,12.96-37.44,10.32-7.2,23.28-9.6,53.04-9.6,32.64,0,45.84,3.12,54,12.72,6,7.2,8.88,16.8,8.88,30.48,0,.96,0,3.84-.24,6.48h-35.28Z"/>
      </g>
    </g>
  </g>
</svg>
